<?xml version="1.0" encoding="UTF-8"?>
<svg id="icon-3" data-name="icon" xmlns="http://www.w3.org/2000/svg" viewBox="0 0 331.43 228">
  <defs>
    <style>
      .cls-1 {
        fill: #fff;
      }
    </style>
  </defs>
  <g>
    <rect x="102.38" y="60.68" width="144" height="98" rx="8" ry="8"/>
    <path class="cls-1" d="M238.38,159.68H110.38c-4.96,0-9-4.04-9-9v-82c0-4.96,4.04-9,9-9h128c4.96,0,9,4.04,9,9v82c0,4.96-4.04,9-9,9ZM110.38,61.68c-3.86,0-7,3.14-7,7v82c0,3.86,3.14,7,7,7h128c3.86,0,7-3.14,7-7v-82c0-3.86-3.14-7-7-7H110.38Z"/>
  </g>
  <path class="cls-1" d="M108.13,151.52v-84.79l42.92,42.39-42.92,42.39ZM110.13,71.52v75.21l38.08-37.61-38.08-37.61Z"/>
  <path class="cls-1" d="M109.25,152.63l41.86-42.92,17.68,17.16c6.17,4.81,10.94.24,11.14.04.14-.14,13.22-12.88,17.01-16.51l.71-.68,41.86,42.39-130.26.52ZM151.15,112.54l-37.14,38.08,120.74-.48-37.14-37.6c-4.48,4.31-16.16,15.69-16.28,15.81-.05.05-6.21,6.05-13.82.07l-.08-.07-16.28-15.81Z"/>
  <path class="cls-1" d="M240.63,151.52l-42.42-41.89,42.42-42.42v84.31ZM201.05,109.62l37.58,37.11v-74.69l-37.58,37.58Z"/>
  <path class="cls-1" d="M173.68,130.22c-2.63,0-5.19-1.03-7.24-3.08l-53-53-6.04-6.71h133.1l-30.14,31.19-29.02,28.52c-2.34,2.05-5.04,3.08-7.67,3.08ZM111.89,69.43l3,3.33,52.96,52.96c3.9,3.9,8.9,2.78,12.13-.05l28.96-28.46,26.84-27.79h-123.9Z"/>
</svg>