<?xml version="1.0" encoding="UTF-8"?>
<svg id="icon-4" data-name="icon" xmlns="http://www.w3.org/2000/svg" viewBox="0 0 331.43 228">
  <defs>
    <style>
      .cls-1 {
        fill: #fff;
      }
    </style>
  </defs>
  <g>
    <rect x="102.37" y="54.94" width="109" height="102" rx="7" ry="7"/>
    <path class="cls-1" d="M204.37,157.94h-95c-4.41,0-8-3.59-8-8V61.94c0-4.41,3.59-8,8-8h95c4.41,0,8,3.59,8,8v88c0,4.41-3.59,8-8,8ZM109.37,55.94c-3.31,0-6,2.69-6,6v88c0,3.31,2.69,6,6,6h95c3.31,0,6-2.69,6-6V61.94c0-3.31-2.69-6-6-6h-95Z"/>
  </g>
  <path class="cls-1" d="M137.67,90.96v50.72h-15.84v-50.72h15.84ZM120.89,77.89c0-2.25.81-4.09,2.44-5.53s3.73-2.16,6.33-2.16,4.7.72,6.33,2.16,2.44,3.28,2.44,5.53-.81,4.09-2.44,5.53-3.73,2.16-6.33,2.16-4.7-.72-6.33-2.16-2.44-3.28-2.44-5.53ZM162.94,101.79v39.89h-15.8v-50.72h14.81l.98,10.83ZM161.06,114.59l-3.7.09c0-3.88.47-7.33,1.41-10.36.94-3.06,2.27-5.66,3.99-7.78,1.72-2.12,3.76-3.73,6.14-4.83,2.41-1.12,5.08-1.69,8.02-1.69,2.34,0,4.48.34,6.42,1.03,1.97.69,3.66,1.8,5.06,3.33,1.44,1.53,2.53,3.56,3.28,6.09.78,2.5,1.17,5.59,1.17,9.28v31.92h-15.89v-31.97c0-2.03-.28-3.58-.84-4.64-.56-1.09-1.38-1.84-2.44-2.25-1.06-.41-2.36-.61-3.89-.61-1.62,0-3,.31-4.12.94s-2.03,1.5-2.72,2.62c-.66,1.09-1.14,2.39-1.45,3.89-.28,1.5-.42,3.14-.42,4.92Z"/>
</svg>