<?xml version="1.0" encoding="UTF-8"?>
<svg id="icon" xmlns="http://www.w3.org/2000/svg" viewBox="0 0 331.43 228">
  <defs>
    <style>
      .cls-1 {
        fill: none;
        stroke: #fff;
        stroke-width: 2px;
      }
    </style>
  </defs>
  <rect x="137.43" y="64.1" width="99" height="96" rx="8" ry="8"/>
  <path class="cls-1" d="M172.98,87.3v1.32M176.61,87.3v1.32M176.61,88.62v1.32h-3.62v-1.32M176.61,88.62h-3.62"/>
  <path class="cls-1" d="M172.98,88.18v-6.15h28.09v6.59h-3.63v-3.95h-20.84v3.51M158.03,89.94h-5.89c-.91.29-2.72,1.49-2.72,3.95v44.81c-.15.88.18,2.81,2.72,3.51h69.31c.91-.29,2.9-1.41,3.63-3.51.72-2.11.3-30.75,0-44.81.3-.59,0-2.2-3.63-3.95h-4.98v21.53c0,1.32-.73,4.13-3.63,4.83h-50.74c-1.36-.15-4.08-1.32-4.08-4.83v-21.53ZM162.11,89.94h50.74v21.53h-50.74v-21.53Z"/>
</svg>